Coordinates
version=1
nRows=24
nColumns=24
inDegrees=yes

Units are S.I. units (second, meters, Newtons, ...)
Angles are in degrees.

endheader
time	pelvis_tilt	pelvis_list	pelvis_rotation	pelvis_tx	pelvis_ty	pelvis_tz	hip_flexion_r	hip_adduction_r	hip_rotation_r	knee_angle_r	ankle_angle_r	subtalar_angle_r	mtp_angle_r	hip_flexion_l	hip_adduction_l	hip_rotation_l	knee_angle_l	ankle_angle_l	subtalar_angle_l	mtp_angle_l	lumbar_extension	lumbar_bending	lumbar_rotation
      1.09583333	     -0.29705655	     -2.94014172	     -3.08153222	      0.07389350	      1.03816679	      0.30776259	    -20.41515107	      4.31428233	      3.15257981	     -8.13612983	     13.79832990	     -1.71761778	      6.68473300	     26.42840591	     -4.41053188	     -3.34538258	     -1.85046199	      9.17946726	      6.04058647	      6.83128096	    -14.11434145	      4.51513774	      4.60427877
      1.10000000	     -0.27248422	     -2.89117646	     -3.21319002	      0.08027174	      1.03755956	      0.30752848	    -20.55445729	      4.15139477	      3.04095656	     -8.62573569	     13.70310372	     -1.34187421	      7.01997232	     26.41766887	     -4.34310608	     -3.17867236	     -2.41817856	      8.89812475	      5.79801140	      6.91145341	    -14.11569556	      4.31818282	      4.74241403
      1.10416667	     -0.28537953	     -2.83470386	     -3.33945532	      0.08673449	      1.03695634	      0.30732760	    -20.67194114	      3.99228212	      3.03022382	     -9.07219231	     13.41254446	     -1.20661805	      7.25607009	     26.44616528	     -4.27268969	     -3.04988381	     -3.01344651	      8.58959651	      5.67755213	      6.96740335	    -14.06559969	      4.11258469	      4.74444077
      1.10833333	     -0.26987029	     -2.79005938	     -3.46448968	      0.09315532	      1.03643054	      0.30709277	    -20.79348641	      3.83941570	      2.99318163	     -9.56046304	     13.13644412	     -1.09266745	     10.88043719	     26.44956140	     -4.21101903	     -2.90370601	     -3.63885783	      8.20982336	      5.42691800	      7.88445375	    -14.05382202	      3.95244301	      4.78269710
      1.11250000	     -0.25345579	     -2.73034039	     -3.58343340	      0.09963373	      1.03596500	      0.30685918	    -20.91375494	      3.67378425	      2.95677523	    -10.05404079	     12.80522723	     -0.98317688	     10.89720934	     26.46895119	     -4.13847004	     -2.86032871	     -4.32446896	      7.86146765	      5.32857412	      7.88177693	    -14.04721171	      3.76150813	      4.77858441
      1.11666667	     -0.26688759	     -2.64509558	     -3.69734229	      0.10616215	      1.03549912	      0.30660313	    -20.96676193	      3.47808616	      2.82613431	    -10.61926006	     12.57362550	     -0.65382221	     11.04369257	     26.49906510	     -4.03509962	     -2.74312043	     -4.98140054	      7.41961064	      5.08458128	      7.90056079	    -13.99482509	      3.51396992	      4.83588485
      1.12083333	     -0.25720755	     -2.57733041	     -3.80784971	      0.11269391	      1.03514171	      0.30635772	    -21.04665061	      3.30632476	      2.76819968	    -11.16747177	     12.16417539	     -0.55442556	     11.11438260	     26.51882713	     -3.95622359	     -2.70380354	     -5.67950024	      6.98624472	      4.96135798	      7.90555301	    -13.96368793	      3.31217948	      4.82040452
      1.12500000	     -0.29622967	     -2.49746702	     -3.89635778	      0.11925405	      1.03475109	      0.30603919	    -21.04367103	      3.12518383	      2.63486385	    -11.76809005	     11.74356861	     -0.38587258	     14.08357380	     26.57956440	     -3.84923050	     -2.52659816	     -6.35842928	      6.46269400	      4.57604593	      8.37054708	    -13.88345905	      3.09071531	      4.81257379
      1.12916667	     -0.29303702	     -2.39845234	     -3.99512830	      0.12583236	      1.03449244	      0.30574723	    -21.06249612	      2.91586369	      2.48268243	    -12.41431453	     11.36157095	     -0.13015112	     14.17293306	     26.62040615	     -3.74060253	     -2.54772862	     -7.10832196	      6.01549087	      4.46384827	      8.36988279	    -13.84505794	      2.83737459	      4.80719210
      1.13333333	     -0.30531511	     -2.30502475	     -4.07572144	      0.13243921	      1.03427757	      0.30544001	    -21.06124196	      2.72388649	      2.36815087	    -13.05619047	     10.85799107	      0.00337465	     14.24971702	     26.68128244	     -3.63484822	     -2.54451806	     -7.87051346	      5.55195588	      4.33475461	      8.36655303	    -13.78533348	      2.59081822	      4.77823176
      1.13750000	     -0.34274200	     -2.20491970	     -4.14542798	      0.13904330	      1.03405866	      0.30506361	    -20.98149048	      2.51988631	      2.14901049	    -13.80041842	     10.44632885	      0.28385186	     14.54110519	     26.78101362	     -3.51687679	     -2.51439420	     -8.66425749	      5.09774222	      4.08547137	      8.37265358	    -13.68760264	      2.35653270	      4.74048002
      1.14166667	     -0.32142380	     -2.08409928	     -4.21300200	      0.14565510	      1.03402998	      0.30470356	    -20.96028097	      2.29107488	      1.96194449	    -14.52526796	      9.84336238	      0.43903165	     17.61633791	     26.79563317	     -3.37684037	     -2.48050956	     -9.41863654	      4.61778645	      3.79874034	      8.46561651	    -13.67158916	      2.08263656	      4.64639522
      1.14583333	     -0.38046833	     -2.00179443	     -4.25236579	      0.15228273	      1.03389781	      0.30428755	    -20.82533169	      2.12143362	      1.77501700	    -15.31407059	      9.26595980	      0.56757558	     17.69972717	     26.95610206	     -3.28348199	     -2.53125551	    -10.30332553	      4.27018671	      3.77302517	      8.45735067	    -13.54765288	      1.86741369	      4.62886206
      1.15000000	     -0.35212571	     -1.88639353	     -4.27290688	      0.15887340	      1.03395507	      0.30380998	    -20.74640635	      1.90277098	      1.47738067	    -16.15928437	      8.67448433	      0.83586089	     19.07809694	     27.00481027	     -3.14020329	     -2.54477321	    -11.14916456	      3.92554000	      3.67740326	      8.38038851	    -13.55220624	      1.61571307	      4.51597745
      1.15416667	     -0.39238925	     -1.78108520	     -4.31754917	      0.16551633	      1.03399990	      0.30340689	    -20.58419145	      1.70525995	      1.32302966	    -17.01321737	      7.98158024	      0.91675394	     19.13576529	     27.12234301	     -3.03013180	     -2.59728992	    -12.00792848	      3.59825834	      3.57625318	      8.36878564	    -13.44886013	      1.34981855	      4.47960842
      1.15833333	     -0.42231955	     -1.67461241	     -4.33504724	      0.17213704	      1.03409466	      0.30292566	    -20.39069832	      1.50444261	      1.07631825	    -17.94403650	      7.30650750	      1.09133215	     19.23936076	     27.23447998	     -2.90618988	     -2.62840167	    -12.87650746	      3.32205275	      3.49648666	      8.35313827	    -13.36021301	      1.10162211	      4.41508762
      1.16250000	     -0.46899459	     -1.56776515	     -4.34411769	      0.17871770	      1.03418337	      0.30237761	    -20.12433030	      1.29569598	      0.77089630	    -18.98003678	      6.71669576	      1.35102688	     19.50785921	     27.37194676	     -2.77908031	     -2.66714627	    -13.76225472	      3.09499767	      3.42122525	      8.31819752	    -13.25486402	      0.88542775	      4.30840628
      1.16666667	     -0.43154200	     -1.46474274	     -4.31740933	      0.18525875	      1.03446575	      0.30177842	    -19.94379182	      1.09266525	      0.44621828	    -19.99172212	      5.92607186	      1.55017043	     22.74430229	     27.40915144	     -2.63646008	     -2.67405552	    -14.62271115	      2.90558694	      3.40560480	      7.88105673	    -13.28310534	      0.66846388	      4.11654557
      1.17083333	     -0.48416389	     -1.34520387	     -4.33380507	      0.19184719	      1.03468404	      0.30126396	    -19.62066489	      0.87210396	      0.20562900	    -21.09389638	      5.18198700	      1.65027566	     22.80221077	     27.50977377	     -2.50089084	     -2.70428404	    -15.43447614	      2.72273357	      3.31367970	      7.86387637	    -13.15991892	      0.39285889	      4.11463720
      1.17500000	     -0.50093710	     -1.23621202	     -4.31611933	      0.19837238	      1.03497710	      0.30065713	    -19.30321370	      0.65952848	     -0.09885396	    -22.24667150	      4.43516676	      1.84540062	     22.91235408	     27.57363297	     -2.35757958	     -2.71334061	    -16.24111183	      2.58060677	      3.27203450	      7.83409201	    -13.10278411	      0.15530668	      4.02354638
      1.17916667	     -0.50059566	     -1.12561072	     -4.28935138	      0.20485734	      1.03533642	      0.30002542	    -18.97187950	      0.44293386	     -0.41055723	    -23.44697603	      3.66338898	      2.01639736	     23.04969660	     27.59928519	     -2.20538291	     -2.71149773	    -17.00330431	      2.46058360	      3.24409802	      7.79459859	    -13.06858893	     -0.07762845	      3.91904030
      1.18333333	     -0.47969320	     -1.01452330	     -4.25486417	      0.21130685	      1.03577790	      0.29939174	    -18.63925529	      0.22753565	     -0.70409871	    -24.67127978	      2.82261949	      2.14388783	     23.13422404	     27.58219781	     -2.04673479	     -2.69720700	    -17.72348898	      2.36513165	      3.21458702	      7.76616969	    -13.07284376	     -0.33560238	      3.82994867
      1.18750000	     -0.48832370	     -0.90370400	     -4.21561888	      0.21771005	      1.03618328	      0.29869698	    -18.22303340	      0.00162148	     -1.04465251	    -25.99100552	      2.06257259	      2.30724225	     23.29066969	     27.58294276	     -1.88186589	     -2.68030783	    -18.40985426	      2.28150702	      3.18029031	      7.71064455	    -13.02519746	     -0.54144875	      3.70612053
      1.19166667	     -0.45271647	     -0.79005848	     -4.16273020	      0.22405495	      1.03670731	      0.29799429	    -17.83944303	     -0.22400540	     -1.36521793	    -27.30820014	      1.19388424	      2.36342307	     25.27055361	     27.50807945	     -1.69722723	     -2.61238028	    -19.03585579	      2.22172226	      3.07377171	      6.91459169	    -13.05394745	     -0.77189916	      3.48163743
